Coordinates
version=1
nRows=13
nColumns=36
inDegrees=yes

Units are S.I. units (second, meters, Newtons, ...)
If the header above contains a line with 'inDegrees', this indicates whether rotational values are in degrees (yes) or radians (no).

endheader
time	pelvis_tilt	pelvis_list	pelvis_rotation	pelvis_tx	pelvis_ty	pelvis_tz	hip_flexion_r	hip_adduction_r	hip_rotation_r	knee_angle_r	knee_angle_r_beta	ankle_angle_r	subtalar_angle_r	mtp_angle_r	hip_flexion_l	hip_adduction_l	hip_rotation_l	knee_angle_l	knee_angle_l_beta	ankle_angle_l	subtalar_angle_l	mtp_angle_l	lumbar_extension	lumbar_bending	lumbar_rotation	arm_flex_r	arm_add_r	arm_rot_r	elbow_flex_r	pro_sup_r	arm_flex_l	arm_add_l	arm_rot_l	elbow_flex_l	pro_sup_l
      2.30000000	     -4.10839648	      8.24703924	     -6.50609961	      0.82149590	      0.94667181	      0.11161983	      7.67935275	     -0.52650142	      6.24638951	     17.94161321	      0.31314022	     19.79090392	     -3.91674020	     -7.49999949	     54.75774790	     -5.02856962	     -2.20368469	     35.59198632	      0.62119735	      6.70680317	     -0.37003139	     -7.49999949	      2.06867408	      3.70052345	      3.51897129	     39.01693772	     -1.21629630	     71.59418447	    113.75099355	     95.65113983	     37.52907184	     -3.20768997	     63.26983062	    110.45507891	    106.02969145
      2.31666670	     -4.18801905	      8.26041888	     -6.67246018	      0.82366931	      0.94421415	      0.11193639	      7.82245080	     -0.46537580	      6.60062098	     18.13050200	      0.31643696	     20.29124253	     -3.71427674	     -7.49999958	     54.60968985	     -5.05627770	     -2.20535417	     35.24418732	      0.61512711	      6.58925592	     -0.08919015	     -7.49999958	      2.08058177	      3.69266027	      4.04158511	     39.03061872	     -1.27524009	     71.03096181	    113.52996702	     95.44234345	     37.56461651	     -3.23622880	     63.38142365	    110.60885700	    106.00282958
      2.33333330	     -4.28857385	      8.21649642	     -6.73590449	      0.81644563	      0.94586272	      0.10808592	      8.01696029	     -0.50554437	      6.65311159	     18.22289106	      0.31804945	     20.27548707	     -3.68316895	     -7.49999959	     54.86536382	     -5.01954196	     -2.13576335	     35.11623124	      0.61289386	      6.46198676	      0.08977051	     -7.49999959	      1.74364255	      3.82285698	      4.01691492	     39.16530734	     -1.40044684	     70.95630456	    113.50517921	     95.43803337	     37.79472704	     -3.39669244	     63.21200006	    110.52807641	    105.99746060
      2.35000000	     -4.35757215	      7.95060093	     -6.75624469	      0.81037052	      0.94632713	      0.11021604	      8.54543617	     -0.14079107	      6.84169060	     18.74767840	      0.32720872	     20.32532338	     -3.54422987	     -7.49999959	     55.34207542	     -5.30841996	     -2.03477724	     34.95417445	      0.61006543	      6.12608877	      0.81814787	     -7.49999959	      1.14519889	      4.13986597	      4.06995869	     40.38636635	     -1.24434558	     70.64420278	    112.95831296	     95.39362856	     39.08054296	     -3.84432213	     62.72808103	    110.24719898	    105.98661568
      2.36666670	     -4.33812963	      7.80918273	     -6.75799910	      0.80995043	      0.94934075	      0.11034946	      8.77143894	      0.07646744	      6.61824773	     18.74361926	      0.32713787	     20.24858785	     -3.49713641	     -7.49999967	     55.19936190	     -5.46543345	     -2.14452218	     34.34841244	      0.59949289	      5.71931135	      1.29989558	     -7.49999967	      0.51583981	      4.38093496	      3.72425362	     41.24540439	     -0.86715373	     71.13762708	    111.91839045	     94.41490052	     39.47513263	     -4.49861509	     62.63752164	    110.06130093	    105.30101709
      2.38333330	     -4.22643335	      8.06445145	     -6.77968112	      0.82529390	      0.94867295	      0.10582778	      8.52888681	     -0.29106805	      6.09840884	     18.72718551	      0.32685105	     20.63377491	     -3.36633147	     -7.49999967	     54.60651628	     -5.21077879	     -2.56165183	     34.30515052	      0.59873783	      5.29920720	      1.55666688	     -7.49999967	      0.89309322	      4.24117052	      3.43630501	     40.30397362	     -0.79703478	     71.36810363	    112.47260073	     94.45395050	     38.67658045	     -4.40270144	     62.53365978	    109.77533510	    105.36000045
      2.40000000	     -4.04303764	      8.54589353	     -6.80870429	      0.83015109	      0.95187243	      0.10965941	      7.96021277	     -0.91705301	      5.76142530	     18.31059532	      0.31958018	     20.75594311	     -3.00443444	     -7.49999967	     53.71078581	     -4.82624651	     -3.21405430	     33.97861483	      0.59303870	      5.13428133	      1.87870611	     -7.49999967	      1.31138021	      3.71153745	      3.40831899	     38.96790163	     -0.95563296	     71.62927183	    112.20387032	     94.55919827	     37.54163615	     -4.53066980	     62.32965469	    109.45472240	    105.42904958
      2.41666670	     -4.10793545	      8.65531243	     -6.77045570	      0.82002182	      0.94701924	      0.10893268	      8.00839725	     -1.11235062	      5.69515396	     18.21029787	      0.31782966	     20.44387772	     -2.82061527	     -7.49999967	     53.85649909	     -4.73578997	     -3.19880189	     33.98460741	      0.59314329	      5.08298355	      2.06855253	     -7.49999967	      1.48832888	      3.64108080	      3.57845137	     39.38874042	     -0.65636538	     71.44764559	    112.17490553	     94.48611359	     37.89470323	     -4.33214654	     62.26313345	    109.65758606	    105.32279689
      2.43333330	     -4.08763200	      8.99305950	     -6.65726928	      0.82941388	      0.95282657	      0.10940002	      7.67767318	     -1.55621816	      5.36300620	     17.80963794	      0.31083682	     20.04559678	     -2.82131282	     -7.49999968	     53.04250302	     -4.32741210	     -3.47592547	     33.10854636	      0.57785314	      4.80657636	      2.14186777	     -7.49999968	      1.75449204	      3.26512632	      3.59481169	     38.83993630	     -0.53066269	     71.93941312	    112.11312426	     94.61523988	     37.32488821	     -4.30273682	     63.07970802	    110.07503150	    105.45411976
      2.45000000	     -3.97248480	      9.19094356	     -6.64328062	      0.83167855	      0.95255439	      0.10360951	      7.46556966	     -1.95152327	      5.19299822	     17.46481830	      0.30481858	     19.72428113	     -2.74893171	     -7.49999968	     52.49787164	     -3.98333158	     -3.76899536	     32.48766978	      0.56701680	      4.70449344	      2.36968290	     -7.49999968	      1.85398399	      3.24880546	      3.43899865	     38.31664943	     -0.71822676	     72.52521818	    112.55630100	     94.78361485	     36.75601552	     -4.02967897	     63.17819460	    110.22318881	    105.55719506
      2.46666670	     -3.92553240	      9.16815801	     -6.71673567	      0.82355098	      0.95744545	      0.10593836	      7.58244770	     -2.01156939	      4.65760987	     17.31728449	      0.30224363	     19.03855659	     -2.71120013	     -7.49999968	     52.30419333	     -3.97601660	     -3.86977261	     31.89090621	      0.55660131	      4.30272798	      2.47760838	     -7.49999968	      1.47628144	      3.39015202	      3.58742518	     38.45026639	     -1.03084000	     73.24816974	    112.22533380	     94.99592175	     36.64216154	     -3.82531462	     63.50072368	    110.25211706	    105.70399010
      2.48333330	     -3.95792079	      9.17565196	     -6.67301621	      0.82473557	      0.95812499	      0.10572645	      7.82335043	     -2.05253849	      3.96875924	     17.22155857	      0.30057290	     18.33171815	     -3.01207782	     -7.49999969	     51.94550319	     -3.83473739	     -3.84205779	     31.03775888	      0.54171108	      3.95826165	      2.34976091	     -7.49999969	      1.16204430	      3.36191880	      3.44828000	     38.56013759	     -1.12588637	     73.78347956	    112.10625554	     94.26635031	     36.65970685	     -3.94846064	     63.51706959	    110.04522851	    104.63139179
      2.50000000	     -3.81057644	      9.26234139	     -6.75223364	      0.83179338	      0.95848311	      0.10405884	      7.65050660	     -2.15944061	      3.80902263	     17.07891131	      0.29808323	     18.21807903	     -2.96444962	     -7.49999969	     51.46571831	     -3.66445212	     -3.92379299	     30.94200314	      0.54003983	      4.26995537	      2.19005070	     -7.49999969	      1.30207977	      3.43669639	      3.51623292	     38.10852835	     -1.28618665	     73.97334427	    112.04666393	     94.35935207	     36.00481857	     -3.88942236	     63.49646097	    109.84682080	    104.71519958
